<svg width="64" height="66" viewBox="0 0 64 66" fill="none" xmlns="http://www.w3.org/2000/svg">
<g filter="url(#filter0_d_44_11)">
<path d="M11.2309 16.1165C11.137 14.3758 9.92665 12.8964 8.23912 12.4596L7.49877 12.2679C6.61634 12.0395 6 11.2433 6 10.3317L6 6C6 4.89543 6.89543 4 8 4H56C57.1046 4 58 4.89543 58 6V10.3317C58 11.2433 57.3837 12.0395 56.5012 12.2679L55.7601 12.4598C54.0729 12.8965 52.8627 14.3754 52.7684 16.1157L50.5953 56.2165C50.4803 58.3384 48.7262 60 46.6011 60H17.3882C15.2627 60 13.5084 58.3378 13.394 56.2155L11.2309 16.1165Z" fill="#39383E"/>
</g>
<path fill-rule="evenodd" clip-rule="evenodd" d="M8.23909 12.4592C9.92739 12.8962 11.1379 14.3767 11.2309 16.1182L11.2324 16.1454L57.2551 11.8903C57.2594 11.8869 57.2637 11.8834 57.2679 11.8799H6.73523C6.95401 12.059 7.21308 12.1936 7.50034 12.2679L8.23909 12.4592Z" fill="#25242B"/>
<defs>
<filter id="filter0_d_44_11" x="2" y="2" width="60" height="64" filterUnits="userSpaceOnUse" color-interpolation-filters="sRGB">
<feFlood flood-opacity="0" result="BackgroundImageFix"/>
<feColorMatrix in="SourceAlpha" type="matrix" values="0 0 0 0 0 0 0 0 0 0 0 0 0 0 0 0 0 0 127 0" result="hardAlpha"/>
<feOffset dy="2"/>
<feGaussianBlur stdDeviation="2"/>
<feComposite in2="hardAlpha" operator="out"/>
<feColorMatrix type="matrix" values="0 0 0 0 0 0 0 0 0 0 0 0 0 0 0 0 0 0 0.25 0"/>
<feBlend mode="normal" in2="BackgroundImageFix" result="effect1_dropShadow_44_11"/>
<feBlend mode="normal" in="SourceGraphic" in2="effect1_dropShadow_44_11" result="shape"/>
</filter>
</defs>
</svg>
