<svg width="52" height="64" viewBox="0 0 52 64" fill="none" xmlns="http://www.w3.org/2000/svg">
<path d="M0 4C0 1.79086 1.79086 0 4 0H38L52 14V60C52 62.2091 50.2091 64 48 64H4C1.79086 64 0 62.2091 0 60L0 4Z" fill="#39383E"/>
<path d="M38 0L52 14H38V0Z" fill="#424147"/>
<path d="M27 26L39 26" stroke="white" stroke-width="2.5" stroke-linecap="round"/>
<path d="M27 34L39 34" stroke="white" stroke-width="2.5" stroke-linecap="round"/>
<path d="M13 42H39" stroke="white" stroke-width="2.5" stroke-linecap="round"/>
<path d="M20.6467 24.4062V27.2734H20.3655C20.1988 26.612 20.0139 26.138 19.8108 25.8516C19.6076 25.5599 19.329 25.3281 18.9748 25.1562C18.7769 25.0625 18.4306 25.0156 17.9358 25.0156H17.1467V33.1875C17.1467 33.7292 17.1753 34.0677 17.2326 34.2031C17.2951 34.3385 17.4123 34.4583 17.5842 34.5625C17.7613 34.6615 18.0009 34.7109 18.303 34.7109H18.6545V35H13.1076V34.7109H13.4592C13.7665 34.7109 14.0139 34.6562 14.2014 34.5469C14.3368 34.474 14.4436 34.349 14.5217 34.1719C14.579 34.0469 14.6076 33.7188 14.6076 33.1875V25.0156H13.842C13.1285 25.0156 12.6102 25.1667 12.2873 25.4688C11.8342 25.8906 11.5477 26.4922 11.428 27.2734H11.1311V24.4062H20.6467Z" fill="white"/>
</svg>
