<svg width="16" height="16" viewBox="0 0 16 16" class="Icon element-resize-handle" xmlns="http://www.w3.org/2000/svg"><g fill="none" fill-rule="evenodd"><path fill="#1B2536" d="M13.146 12.146a.5.5 0 0 1 .708.708l-1 1a.5.5 0 0 1-.708-.708zm0-4a.5.5 0 0 1 .708.708l-5 5a.5.5 0 0 1-.708-.708zm0-4a.5.5 0 0 1 .708.708l-9 9a.5.5 0 0 1-.708-.708z" fill-opacity=".5"></path><path fill="#FFF" d="M13.146 6.146a.5.5 0 0 1 .708.708l-7 7a.5.5 0 0 1-.708-.708zm0-4a.5.5 0 0 1 .708.708l-11 11a.5.5 0 0 1-.708-.708zm0 8a.5.5 0 0 1 .708.708l-3 3a.5.5 0 0 1-.708-.708z" fill-opacity=".7"></path></g></svg>