<svg width="50" height="53" viewBox="0 0 50 53" fill="none" xmlns="http://www.w3.org/2000/svg">
<path d="M5.04088 11.4811C4.94406 9.73026 3.71824 8.24663 2.01713 7.82135L1.51494 7.6958C0.624604 7.47322 9.15064e-06 6.67326 8.93184e-06 5.75552L8.03645e-06 2C7.7731e-06 0.895429 0.895438 0 2.00001 0H48C49.1046 0 50 0.895431 50 2V5.75552C50 6.67326 49.3754 7.47322 48.4851 7.6958L47.9821 7.82154C46.2814 8.24673 45.0557 9.72984 44.9584 11.4802L42.8928 48.6609C42.7751 50.7806 41.0219 52.439 38.899 52.439H11.0908C8.96746 52.439 7.21414 50.78 7.0969 48.6599L5.04088 11.4811Z" fill="#39383E"/>
<path fill-rule="evenodd" clip-rule="evenodd" d="M49.2514 7.31707C49.2455 7.32181 49.2396 7.32652 49.2336 7.3312L5.02614 11.2783C4.84973 9.6166 3.65378 8.23011 2.01874 7.82135L1.51655 7.6958C1.27007 7.63418 1.04396 7.52831 0.845825 7.38794L0.855275 7.31707H49.2514Z" fill="#25242B"/>
</svg>
