<svg width="64" height="64" viewBox="0 0 64 64" fill="none" xmlns="http://www.w3.org/2000/svg">
<path d="M6 4C6 1.79086 7.79086 0 10 0H44L58 14V60C58 62.2091 56.2091 64 54 64H10C7.79086 64 6 62.2091 6 60L6 4Z" fill="#39383E"/>
<path d="M44 0L58 14H44V0Z" fill="#424147"/>
<path d="M33 26L45 26" stroke="white" stroke-width="2.5" stroke-linecap="round"/>
<path d="M33 34L45 34" stroke="white" stroke-width="2.5" stroke-linecap="round"/>
<path d="M19 42H45" stroke="white" stroke-width="2.5" stroke-linecap="round"/>
<path d="M26.6467 24.4062V27.2734H26.3655C26.1988 26.612 26.0139 26.138 25.8108 25.8516C25.6076 25.5599 25.329 25.3281 24.9748 25.1562C24.7769 25.0625 24.4306 25.0156 23.9358 25.0156H23.1467V33.1875C23.1467 33.7292 23.1753 34.0677 23.2326 34.2031C23.2951 34.3385 23.4123 34.4583 23.5842 34.5625C23.7613 34.6615 24.0009 34.7109 24.303 34.7109H24.6545V35H19.1076V34.7109H19.4592C19.7665 34.7109 20.0139 34.6562 20.2014 34.5469C20.3368 34.474 20.4436 34.349 20.5217 34.1719C20.579 34.0469 20.6076 33.7188 20.6076 33.1875V25.0156H19.842C19.1285 25.0156 18.6102 25.1667 18.2873 25.4688C17.8342 25.8906 17.5477 26.4922 17.428 27.2734H17.1311V24.4062H26.6467Z" fill="white"/>
</svg>
